<svg xmlns="http://www.w3.org/2000/svg" width="41" height="40" viewBox="0 0 41 40">
    <g fill="none" fill-rule="evenodd" transform="translate(.121)">
        <rect width="40" height="40" fill="#4BC09C" opacity=".15" rx="8"/>
        <path fill="#2CAC97" fill-rule="nonzero" d="M30.833 32.5V17.987c0-.451-.244-.867-.637-1.089l-6.192-3.483-.726-.727a1.253 1.253 0 0 0-1.578-.156l-1.283.856v-1.721h.416c.69-.001 1.25-.56 1.25-1.25v-.834a2.083 2.083 0 0 0-4.166 0v.834h.833v-.834a1.25 1.25 0 0 1 2.5 0v.834c0 .23-.187.416-.417.416h-.46a.79.79 0 0 0-.79.79v1.765l-1.283-.856a1.254 1.254 0 0 0-1.578.156l-.726.727-6.192 3.483a1.251 1.251 0 0 0-.637 1.09V32.5H10V17.987c0-.15.081-.289.212-.363l3.538-1.99v2.837c0 .605.432 1.122 1.027 1.23l3.585.652-2.704 1.352a1.25 1.25 0 0 0-.481 1.811l4.13 6.195a.833.833 0 0 0 1.386 0l4.13-6.195a1.25 1.25 0 0 0-.481-1.811l-2.704-1.352 3.585-.652a1.249 1.249 0 0 0 1.027-1.23v-2.837l3.538 1.99a.418.418 0 0 1 .212.363V32.5h.833zM20 21.4l-2.471-6.042.617.515a.833.833 0 0 0 1.2-.14L20 14.86l.653.872a.834.834 0 0 0 1.2.14l.618-.515L20 21.4zm2.163-8.174a.418.418 0 0 1 .525.052l.445.444-1.813 1.51-.722-.963 1.565-1.043zm-4.851.052c.14-.14.36-.162.525-.052l1.565 1.043-.722.963-1.813-1.51.445-.444zm-2.729 5.193v-3.306l1.598-.899 2.141 5.233-3.396-.618a.416.416 0 0 1-.343-.41zm1.287 4.583a.416.416 0 0 1 .16-.604l2.905-1.452.648 1.584v6.042l-3.713-5.57zm8.316-.338a.413.413 0 0 1-.056.338l-3.713 5.57v-6.042l.648-1.584 2.904 1.452c.108.053.187.15.217.266zm1.23-4.245a.417.417 0 0 1-.342.41l-3.396.618 2.14-5.233 1.599.9v3.305z"/>
    </g>
</svg>
