<svg xmlns="http://www.w3.org/2000/svg" width="41" height="40" viewBox="0 0 41 40">
    <g fill="none" fill-rule="evenodd" transform="translate(.09)">
        <rect width="40" height="40" fill="#4BC09C" opacity=".15" rx="8"/>
        <g fill="#2CAC97" fill-rule="nonzero">
            <path d="M31.25 24.167h-3.627l2.141-8.21a1.288 1.288 0 0 0-2.482-.686l-2.594 8.896h-9.376l-2.594-8.896a1.288 1.288 0 0 0-2.482.686l2.141 8.21H8.75c-.69 0-1.25.56-1.25 1.25v2.5a2.92 2.92 0 0 0 2.917 2.916h1.25a1.667 1.667 0 1 0 3.333 0h10a1.667 1.667 0 0 0 3.333 0h1.25a2.92 2.92 0 0 0 2.917-2.916v-2.5c0-.69-.56-1.25-1.25-1.25zm-3.168-8.663a.454.454 0 0 1 .876.242l-2.197 8.42h-1.205l2.526-8.662zm-17.04.242a.454.454 0 0 1 .876-.242l2.527 8.663h-1.206l-2.197-8.42zm2.291 15.92a.834.834 0 0 1-.833-.833h1.667c0 .46-.374.833-.834.834zM10.417 30a2.086 2.086 0 0 1-2.084-2.083v-2.5c0-.23.187-.417.417-.417h15v5H10.417zm16.25 1.667a.834.834 0 0 1-.834-.834H27.5c0 .46-.373.833-.833.834zm5-3.75A2.086 2.086 0 0 1 29.583 30h-5v-5h6.667c.23 0 .416.187.417.417v2.5z"/>
            <path d="M11.667 26.25h-.834a.834.834 0 0 0-.833.833v.834c0 .46.373.832.833.833h.834c.46 0 .832-.373.833-.833v-.834a.834.834 0 0 0-.833-.833zm0 1.667h-.834v-.834h.834v.834zM29.167 27.917H30v.833h-.833zM27.5 27.917h.833v.833H27.5zM25.833 27.917h.834v.833h-.834zM29.167 26.25H30v.833h-.833zM27.5 26.25h.833v.833H27.5zM25.833 26.25h.834v.833h-.834zM22.062 13.847a2.916 2.916 0 0 0-4.124 0l.589.589a2.083 2.083 0 0 1 2.946 0l.59-.59z"/>
            <path d="M23.536 12.374a5.006 5.006 0 0 0-7.072 0l.59.589a4.172 4.172 0 0 1 5.892 0l.59-.59z"/>
            <path d="M25.009 10.9a7.083 7.083 0 0 0-10.018 0l.59.59a6.25 6.25 0 0 1 8.838 0l.59-.59zM18.75 16.326a1.25 1.25 0 1 0 2.5 0 1.25 1.25 0 0 0-2.5 0zm1.667 0a.417.417 0 1 1-.834 0 .417.417 0 0 1 .834 0z"/>
        </g>
    </g>
</svg>
