<svg xmlns="http://www.w3.org/2000/svg" width="41" height="40" viewBox="0 0 41 40">
    <g fill="none" fill-rule="evenodd" transform="translate(.03)">
        <rect width="40" height="40" fill="#4BC09C" opacity=".15" rx="8"/>
        <g fill="#2CAC97" fill-rule="nonzero">
            <path d="M13.373 26.745v2.43a1.247 1.247 0 1 0 2.495 0V20.41a3.637 3.637 0 0 0 1.247-2.876c0-1.834-1.119-3.326-2.494-3.326-1.376 0-2.495 1.492-2.495 3.326a3.637 3.637 0 0 0 1.247 2.876v2.53a6.236 6.236 0 1 1 9.145-1.872l.72.416a7.07 7.07 0 1 0-9.865 2.46v1.896a8.728 8.728 0 1 1 11.879-4.715l.775.302A9.564 9.564 0 1 0 7.552 17.95a9.502 9.502 0 0 0 5.821 8.796zm-.416-9.212c0-1.352.762-2.495 1.664-2.495.901 0 1.663 1.143 1.663 2.495s-.762 2.495-1.663 2.495c-.902 0-1.664-1.143-1.664-2.495zm1.664 3.326c.14 0 .28-.018.415-.05v8.366a.416.416 0 1 1-.831 0V20.81c.136.032.276.05.416.05z"/>
            <path d="M21.273 21.69v-1.323c.497-.175.83-.644.832-1.17v-4.159h-.832v2.08h-.831v-2.08h-.832v2.08h-.831v-2.08h-.832v4.158c.002.527.335.996.832 1.17v1.325h.831v-1.247h.832v1.247h.831zm0-2.494c0 .23-.186.416-.415.416h-1.664a.416.416 0 0 1-.415-.416V17.95h2.494v1.247zM29.59 22.523h-9.98a2.914 2.914 0 0 0-2.91 2.91v3.327c0 .688.558 1.246 1.247 1.247v2.079c0 .23-.186.416-.416.416h-2.495v.831h2.495c.689 0 1.247-.558 1.248-1.247v-2.08h.831v2.08c0 .689.559 1.247 1.248 1.247h7.484c.689 0 1.247-.558 1.247-1.247v-2.08h1.664c.688 0 1.246-.558 1.247-1.246v-3.327a2.914 2.914 0 0 0-2.91-2.91zm-.832 9.563c0 .23-.186.416-.416.416h-7.484a.416.416 0 0 1-.416-.416v-4.574a2.081 2.081 0 0 1 2.079-2.079h4.158a2.081 2.081 0 0 1 2.079 2.08v4.573zm2.91-3.326c0 .23-.186.415-.415.415h-1.664v-1.663a2.914 2.914 0 0 0-2.91-2.91H22.52a2.914 2.914 0 0 0-2.91 2.91v1.663h-1.664a.416.416 0 0 1-.416-.415v-3.327a2.081 2.081 0 0 1 2.08-2.079h9.978a2.081 2.081 0 0 1 2.08 2.08v3.326z"/>
            <path d="M24.6 26.265a2.495 2.495 0 1 0 0 4.99 2.495 2.495 0 0 0 0-4.99zm0 4.158a1.663 1.663 0 1 1 0-3.327 1.663 1.663 0 0 1 0 3.327zM27.095 30.838h1v1h-1z"/>
        </g>
    </g>
</svg>
