<svg xmlns="http://www.w3.org/2000/svg" width="41" height="40" viewBox="0 0 41 40">
    <g fill="none" fill-rule="evenodd" transform="translate(.151)">
        <rect width="40" height="40" fill="#4BC09C" opacity=".15" rx="8"/>
        <path fill="#2CAC97" fill-rule="nonzero" d="M31.25 18.333h-4.625a2.087 2.087 0 0 0-2.042-1.666h-.416v-2.53a3.336 3.336 0 0 0 2.916-3.304V8.75c0-.69-.56-1.25-1.25-1.25h-4.166c-.69 0-1.25.56-1.25 1.25v2.083a3.336 3.336 0 0 0 2.916 3.305v2.529h-.416a2.087 2.087 0 0 0-2.042 1.666h-1.75a2.087 2.087 0 0 0-2.042-1.666h-.416v-2.53a3.336 3.336 0 0 0 2.916-3.304V8.75c0-.69-.56-1.25-1.25-1.25h-4.166c-.69 0-1.25.56-1.25 1.25v2.083a3.336 3.336 0 0 0 2.916 3.305v2.529h-.416a2.087 2.087 0 0 0-2.042 1.666H8.75c-.69.001-1.25.56-1.25 1.25.001.92.747 1.666 1.667 1.667h2.916v.621c.002.558.371 1.047.907 1.202l1.69.483c.34.097.65.28.9.53l2.56 2.56c.392.39.612.92.61 1.473v.214a.834.834 0 0 0-.833.834V32.5h.833v-1.25H25v1.25h.833v-3.333a.834.834 0 0 0-.833-.834V27.18c0-.282.057-.562.168-.82l2.19-5.11h3.475a1.669 1.669 0 0 0 1.667-1.667c0-.69-.56-1.249-1.25-1.25zm-9.583-10h4.166c.23 0 .417.187.417.417v1.667h-5V8.75c0-.23.187-.416.417-.417zm-.38 2.917h4.925a2.497 2.497 0 0 1-4.924 0zm-7.12-2.917h4.166c.23 0 .417.187.417.417v1.667h-5V8.75c0-.23.187-.416.417-.417zm-.38 2.917h4.925a2.497 2.497 0 0 1-4.924 0zm9.13 6.25h1.666c.53 0 1.002.334 1.179.833h-4.024c.177-.499.65-.832 1.179-.833zm-7.5 0h1.666c.53 0 1.002.334 1.179.833h-4.024c.177-.499.65-.832 1.179-.833zm3.333 12.917v-1.25H25v1.25h-6.25zm5.653-4.386a2.896 2.896 0 0 0-.236 1.149v1.153h-4.584v-.214a2.898 2.898 0 0 0-.854-2.062l-2.56-2.56a2.923 2.923 0 0 0-1.26-.742l-1.69-.483a.419.419 0 0 1-.302-.4v-.622h3.66l3.353 1.524c.843.381 1.815.342 2.624-.105l2.554-1.419h1.343l-2.048 4.78zM18.59 21.25h4.802l-1.243.69a2.09 2.09 0 0 1-1.874.076l-1.685-.766zm12.243-.833H9.167a.834.834 0 0 1-.834-.834c0-.23.187-.416.417-.416h22.5c.23 0 .416.186.417.416 0 .46-.374.833-.834.834z"/>
    </g>
</svg>
