<svg xmlns="http://www.w3.org/2000/svg" width="41" height="40" viewBox="0 0 41 40">
    <g fill="none" fill-rule="evenodd" transform="translate(.06)">
        <rect width="40" height="40" fill="#4BC09C" opacity=".15" rx="8"/>
        <g fill="#2CAC97" fill-rule="nonzero">
            <path d="M31.25 13.333h-1.713c.563-.547.88-1.298.88-2.083V9.583c-.001-.69-.56-1.249-1.25-1.25h-5.834a2.086 2.086 0 0 0-2.083 2.084v.416h-2.5v-.416a2.086 2.086 0 0 0-2.083-2.084h-5.834c-.69.001-1.249.56-1.25 1.25v1.667c0 .785.317 1.536.88 2.083H8.75c-.69.001-1.25.56-1.25 1.25v2.5c0 .69.56 1.25 1.25 1.25v13.75c0 .69.56 1.25 1.25 1.25h4.167V32.5H10a.417.417 0 0 1-.417-.417v-13.75h8.334v3.334h.833v-3.334h2.5v3.334h.833v-3.334h8.334v3.334h.833v-3.334c.69 0 1.25-.56 1.25-1.25v-2.5c0-.69-.56-1.249-1.25-1.25zm-9.167-2.916c.001-.69.56-1.25 1.25-1.25h5.834c.23 0 .416.186.416.416v1.667a2.086 2.086 0 0 1-2.083 2.083h-5.417v-2.916zm-.833 1.25v1.666h-2.5v-1.666h2.5zm-10.833-.417V9.583c0-.23.186-.416.416-.416h5.834c.69 0 1.249.56 1.25 1.25v2.916H12.5a2.086 2.086 0 0 1-2.083-2.083zM8.75 17.5a.417.417 0 0 1-.417-.417v-2.5c0-.23.187-.416.417-.416h7.917V17.5H8.75zm8.75 0v-3.333h5V17.5h-5zm14.167-.417c0 .23-.187.417-.417.417h-7.917v-3.333h7.917c.23 0 .417.186.417.416v2.5z"/>
            <path d="M20.417 25h.833v.833h-.833zM20.417 26.667h.833v.833h-.833zM20.417 28.333h.833v.834h-.833zM20.417 30h.833v.833h-.833z"/>
            <path d="M31.25 22.5h-15c-.69 0-1.25.56-1.25 1.25v8.333c0 .69.56 1.25 1.25 1.25h15c.69 0 1.25-.56 1.25-1.25V30.38a.836.836 0 0 0-.7-.82 1.667 1.667 0 0 1 0-3.286.836.836 0 0 0 .7-.82V23.75c0-.69-.56-1.25-1.25-1.25zm.409 2.953a2.499 2.499 0 0 0 .008 4.927v1.703c0 .23-.187.417-.417.417h-10v-.833h-.833v.833H16.25a.417.417 0 0 1-.417-.417V23.75c0-.23.187-.417.417-.417h4.167v.834h.833v-.834h10c.23 0 .417.187.417.417l-.008 1.703z"/>
        </g>
    </g>
</svg>
