<svg xmlns="http://www.w3.org/2000/svg" width="44" height="44" viewBox="0 0 44 44">
    <g fill="none" fill-rule="evenodd" stroke="#5C626A" stroke-width="2">
        <path stroke-linejoin="round" d="M23.623 12.548v-.893c0-1.35-.853-1.846-1.654-1.846-.802 0-1.583.73-1.583 1.846v.816c-3.97 1.905-5.955 4.45-5.955 7.636v6.391a2.255 2.255 0 0 0-1.534 2.135 2.254 2.254 0 0 0 2.25 2.25H28.79a2.254 2.254 0 0 0 2.252-2.25c0-.991-.644-1.835-1.535-2.135v-6.36c.045.002-.136-2.52-1.345-4.232-.806-1.14-2.318-2.26-4.538-3.358z"/>
        <path d="M24.255 30.613v.73a2.287 2.287 0 1 1-4.573 0v-.73"/>
    </g>
</svg>
