<svg xmlns="http://www.w3.org/2000/svg" width="44" height="44" viewBox="0 0 44 44">
    <g fill="none" fill-rule="evenodd" stroke="#5C626A" stroke-width="2">
        <path d="M12.788 12.792a2 2 0 0 0-2 2v12.64a.279.279 0 0 0 .479.195l1.606-1.647a3 3 0 0 1 2.147-.905h12.311a2 2 0 0 0 2-2v-8.283a2 2 0 0 0-2-2H12.788z"/>
        <path stroke-linecap="round" d="M19.4 25.389v2.757a2.763 2.763 0 0 0 2.763 2.763h8.108c.496 0 .972.2 1.318.556l1.04 1.067a.922.922 0 0 0 1.583-.644v-8.514a2.763 2.763 0 0 0-2.763-2.763h-1.844"/>
    </g>
</svg>
